{
	"asset":{
		"generator":"Khronos glTF Blender I/O v4.2.57",
		"version":"2.0"
	},
	"scene":0,
	"scenes":[
		{
			"name":"Scene",
			"nodes":[
				0,
				1,
				2
			]
		}
	],
	"nodes":[
		{
			"mesh":0,
			"name":"object_0_Baked",
			"rotation":[
				0,
				0,
				-0.7071068286895752,
				0.7071068286895752
			],
			"scale":[
				0.8752702474594116,
				1,
				1
			],
			"translation":[
				1.5910987854003906,
				1.5691804885864258,
				-2.549323320388794
			]
		},
		{
			"mesh":1,
			"name":"object_1_Baked",
			"rotation":[
				0,
				0,
				-0.7071068286895752,
				0.7071068286895752
			],
			"scale":[
				0.8752702474594116,
				1,
				1
			],
			"translation":[
				1.5951197147369385,
				1.5688905715942383,
				-2.5404632091522217
			]
		},
		{
			"mesh":2,
			"name":"object_8_Baked",
			"rotation":[
				0,
				0,
				-0.7071068286895752,
				0.7071068286895752
			],
			"scale":[
				0.8752702474594116,
				1,
				1
			],
			"translation":[
				1.676255226135254,
				1.6236095428466797,
				-2.4060423374176025
			]
		}
	],
	"materials":[
		{
			"doubleSided":true,
			"name":"object_0_Baked",
			"pbrMetallicRoughness":{
				"baseColorTexture":{
					"index":0
				},
				"metallicFactor":0,
				"roughnessFactor":0.5
			}
		},
		{
			"doubleSided":true,
			"name":"object_1_Baked",
			"pbrMetallicRoughness":{
				"baseColorTexture":{
					"index":1
				},
				"metallicFactor":0,
				"roughnessFactor":0.5
			}
		},
		{
			"doubleSided":true,
			"name":"object_8_Baked",
			"pbrMetallicRoughness":{
				"baseColorTexture":{
					"index":2
				},
				"metallicFactor":0,
				"roughnessFactor":0.5
			}
		}
	],
	"meshes":[
		{
			"name":"Mesh.032",
			"primitives":[
				{
					"attributes":{
						"POSITION":0,
						"NORMAL":1,
						"TEXCOORD_0":2
					},
					"indices":3,
					"material":0
				}
			]
		},
		{
			"name":"Mesh.033",
			"primitives":[
				{
					"attributes":{
						"POSITION":4,
						"NORMAL":5,
						"TEXCOORD_0":6
					},
					"indices":7,
					"material":1
				}
			]
		},
		{
			"name":"Mesh.034",
			"primitives":[
				{
					"attributes":{
						"POSITION":8,
						"NORMAL":9,
						"TEXCOORD_0":10
					},
					"indices":11,
					"material":2
				}
			]
		}
	],
	"textures":[
		{
			"sampler":0,
			"source":0
		},
		{
			"sampler":0,
			"source":1
		},
		{
			"sampler":0,
			"source":2
		}
	],
	"images":[
		{
			"mimeType":"image/png",
			"name":"object_0_Bake2_CyclesBake_COMBINED",
			"uri":"object_0_Bake2_CyclesBake_COMBINED.png"
		},
		{
			"mimeType":"image/png",
			"name":"object_1_Bake2_CyclesBake_COMBINED",
			"uri":"object_1_Bake2_CyclesBake_COMBINED.png"
		},
		{
			"mimeType":"image/png",
			"name":"object_8_Bake2_CyclesBake_COMBINED",
			"uri":"object_8_Bake2_CyclesBake_COMBINED.png"
		}
	],
	"accessors":[
		{
			"bufferView":0,
			"componentType":5126,
			"count":4597,
			"max":[
				2.0862956047058105,
				0.8333295583724976,
				4.373064994812012
			],
			"min":[
				-2.261110544204712,
				-0.5754848718643188,
				-3.0180180072784424
			],
			"type":"VEC3"
		},
		{
			"bufferView":1,
			"componentType":5126,
			"count":4597,
			"type":"VEC3"
		},
		{
			"bufferView":2,
			"componentType":5126,
			"count":4597,
			"type":"VEC2"
		},
		{
			"bufferView":3,
			"componentType":5123,
			"count":25668,
			"type":"SCALAR"
		},
		{
			"bufferView":4,
			"componentType":5126,
			"count":3720,
			"max":[
				1.7161048650741577,
				0.8098724484443665,
				4.35771369934082
			],
			"min":[
				-1.6133233308792114,
				-0.5746049284934998,
				-3.007416009902954
			],
			"type":"VEC3"
		},
		{
			"bufferView":5,
			"componentType":5126,
			"count":3720,
			"type":"VEC3"
		},
		{
			"bufferView":6,
			"componentType":5126,
			"count":3720,
			"type":"VEC2"
		},
		{
			"bufferView":7,
			"componentType":5123,
			"count":20697,
			"type":"SCALAR"
		},
		{
			"bufferView":8,
			"componentType":5126,
			"count":1908,
			"max":[
				2.1479530334472656,
				0.7454266548156738,
				4.22978401184082
			],
			"min":[
				-2.198925256729126,
				-0.6579371690750122,
				-3.1585800647735596
			],
			"type":"VEC3"
		},
		{
			"bufferView":9,
			"componentType":5126,
			"count":1908,
			"type":"VEC3"
		},
		{
			"bufferView":10,
			"componentType":5126,
			"count":1908,
			"type":"VEC2"
		},
		{
			"bufferView":11,
			"componentType":5123,
			"count":7632,
			"type":"SCALAR"
		}
	],
	"bufferViews":[
		{
			"buffer":0,
			"byteLength":55164,
			"byteOffset":0,
			"target":34962
		},
		{
			"buffer":0,
			"byteLength":55164,
			"byteOffset":55164,
			"target":34962
		},
		{
			"buffer":0,
			"byteLength":36776,
			"byteOffset":110328,
			"target":34962
		},
		{
			"buffer":0,
			"byteLength":51336,
			"byteOffset":147104,
			"target":34963
		},
		{
			"buffer":0,
			"byteLength":44640,
			"byteOffset":198440,
			"target":34962
		},
		{
			"buffer":0,
			"byteLength":44640,
			"byteOffset":243080,
			"target":34962
		},
		{
			"buffer":0,
			"byteLength":29760,
			"byteOffset":287720,
			"target":34962
		},
		{
			"buffer":0,
			"byteLength":41394,
			"byteOffset":317480,
			"target":34963
		},
		{
			"buffer":0,
			"byteLength":22896,
			"byteOffset":358876,
			"target":34962
		},
		{
			"buffer":0,
			"byteLength":22896,
			"byteOffset":381772,
			"target":34962
		},
		{
			"buffer":0,
			"byteLength":15264,
			"byteOffset":404668,
			"target":34962
		},
		{
			"buffer":0,
			"byteLength":15264,
			"byteOffset":419932,
			"target":34963
		}
	],
	"samplers":[
		{
			"magFilter":9729,
			"minFilter":9987
		}
	],
	"buffers":[
		{
			"byteLength":435196,
			"uri":"model.bin"
		}
	]
}
